<svg xmlns="http://www.w3.org/2000/svg" width="40.074" height="40.204" viewBox="0 0 40.074 40.204">
  <g id="exit-svgrepo-com" transform="translate(-0.831 0.001)">
    <g id="Group_18062" data-name="Group 18062" transform="translate(0.831 -0.001)">
      <g id="Group_18061" data-name="Group 18061" transform="translate(0 0)">
        <path id="Path_34052" data-name="Path 34052" d="M40.113,23.241H38.742V21.5a.792.792,0,0,0-.792-.792h-.468A1.436,1.436,0,0,0,36.408,19.2l-4.525-1.163,1.457-3.817A2.143,2.143,0,0,0,32.1,11.458l-3.336-1.291a3.68,3.68,0,0,0-2-.187l-7.5,1.376a1.437,1.437,0,0,0-.848.5l-2.962,3.575V4.661a.947.947,0,0,0-.681-.909L8.4,1.893h16.52V8.884l1.893-.247V.946A.947.947,0,0,0,25.868,0C25.734,0,1.774,0,1.7,0A.948.948,0,0,0,.832.946c0,.232,0,34.613.008,34.713a.948.948,0,0,0,.673.79l12.729,3.715a.947.947,0,0,0,1.212-.909V19.65a1.426,1.426,0,0,0,.582-.419L20.3,14.09l4.749-.869-3.2,8.383s.114-.288-2.019,7.014l-2.482,4.719v4.471h0a1.675,1.675,0,0,0,1.877-.848l3.646-6.932a1.676,1.676,0,0,0,.125-.31l2.017-6.905.455.174,3.514,5.519-2.526,7.115a1.674,1.674,0,1,0,3.155,1.12l2.8-7.885a1.675,1.675,0,0,0-.165-1.459l-2.457-3.858,1.067-2.794,2.262.581-.021,1.915H31.722a.788.788,0,0,0-.474.159l2.1,3.294a2.964,2.964,0,0,1,.295,2.6l-.348.981h6.822a.792.792,0,0,0,.792-.792V24.033A.792.792,0,0,0,40.113,23.241ZM12.756,24.889a.947.947,0,0,1-1.893,0V19.424a.947.947,0,0,1,1.893,0Zm24.4-1.648H34.677V22.3h2.481Z" transform="translate(-0.831 0.001)" fill="#a0bac6"/>
      </g>
    </g>
    <g id="Group_18064" data-name="Group 18064" transform="translate(20.947 25.58)">
      <g id="Group_18063" data-name="Group 18063">
        <path id="Path_34053" data-name="Path 34053" d="M261.62,325.767l-.643,2.2v6.814H258l-1,1.893h4.115a2.971,2.971,0,0,1,.157-1.305l1.6-4.493v-3.146Z" transform="translate(-257.003 -325.767)" fill="#a0bac6"/>
      </g>
    </g>
    <g id="Group_18066" data-name="Group 18066" transform="translate(29.199 3.766)">
      <g id="Group_18065" data-name="Group 18065">
        <path id="Path_34054" data-name="Path 34054" d="M366.394,48.175a3.172,3.172,0,1,0,1.832,4.1A3.172,3.172,0,0,0,366.394,48.175Z" transform="translate(-362.088 -47.965)" fill="#a0bac6"/>
      </g>
    </g>
  </g>
</svg>
