<svg xmlns="http://www.w3.org/2000/svg" width="24.884" height="40.204" viewBox="0 0 24.884 40.204">
  <g id="patient-with-injured-bandaged-head-standing-with-saline-via-intravenous-line-svgrepo-com" transform="translate(-18.465)">
    <g id="Group_18067" data-name="Group 18067" transform="translate(18.465)">
      <path id="Path_34055" data-name="Path 34055" d="M29.963,1.443,33.012.01A4.127,4.127,0,0,0,29.963,1.443Z" transform="translate(-25.193 -0.006)" fill="#fffcfc"/>
      <path id="Path_34056" data-name="Path 34056" d="M37.671,1.262,34.344,2.826l4.03-1.067A4.185,4.185,0,0,0,37.671,1.262Z" transform="translate(-27.756 -0.738)" fill="#fffcfc"/>
      <path id="Path_34057" data-name="Path 34057" d="M42.16,9.925V8.672h.271a.918.918,0,0,0,.918-.918V3.333a.918.918,0,0,0-.918-.918h-.724a1.948,1.948,0,0,0,.012-.219c0-.056,0-.109-.008-.162H41.9a1.2,1.2,0,0,0,1.2-1.2h-.408a.792.792,0,0,1-.791.791h-.271c-.093-.264-.257-.425-.458-.425s-.365.161-.458.425H37.65V0H36.425V1.626H32.2A.791.791,0,0,1,31.41.835H31a1.2,1.2,0,0,0,1.2,1.2h4.224V15.479a9.177,9.177,0,0,1-4.677-3.625A10.465,10.465,0,0,0,27.4,8.521L26.368,9.559l-1-1.05-.01,0c-.527.127-7.746,2.542-6.809,12.725a1.61,1.61,0,0,0,1.6,1.448,1.547,1.547,0,0,0,.162-.009,1.608,1.608,0,0,0,1.439-1.759,12.444,12.444,0,0,1,.382-5.394v5.738c0,1.231.276,1.5.276,1.5l0,15.35a1.9,1.9,0,1,0,3.8,0V24.9c.075,0,.15.009.226.009l.044,0v13.2a1.9,1.9,0,1,0,3.8,0v-15.3s.331-.32.331-1.556V15.5a12.22,12.22,0,0,0,5.574,3.288,1.548,1.548,0,0,0,.246.054v17.1h-.762A3.081,3.081,0,0,0,32.8,37.892a1.181,1.181,0,1,0,1.2.318,1.848,1.848,0,0,1,1.657-1.042h2.76a1.848,1.848,0,0,1,1.657,1.042,1.185,1.185,0,1,0,1.2-.318,3.081,3.081,0,0,0-2.861-1.949H37.65V18.5a1.585,1.585,0,0,0,.537-.783,1.6,1.6,0,0,0,.051-.7c.863.182,1.817.439,2.221.568a3.23,3.23,0,0,0,1,.174,1.827,1.827,0,0,0,1.037-.288,1.93,1.93,0,0,0,.762-1.557,5,5,0,0,0-.643-2.541,8.352,8.352,0,0,1-.512-1.3,8.6,8.6,0,0,1-.234-2.161Zm-.967-8.32.008.021h-.026C41.181,1.62,41.186,1.608,41.192,1.606Zm-.145.429H41.3a1.567,1.567,0,0,1,.012.162,1.709,1.709,0,0,1-.015.219H41.05a1.639,1.639,0,0,1-.015-.219C41.036,2.136,41.042,2.086,41.047,2.035Zm1.339,11.453a4.731,4.731,0,0,1,.621,2.418,1.678,1.678,0,0,1-.65,1.365,2.093,2.093,0,0,1-1.82.083c-.3-.1-1.384-.4-2.359-.6A1.607,1.607,0,0,0,37.649,16V2.035h2.985c0,.053-.009.106-.009.162a2.161,2.161,0,0,0,.012.219h-.723A.918.918,0,0,0,39,3.333v4.42a.918.918,0,0,0,.918.918h.254v.553h.7V8.672h.595V9.925h.156a8.9,8.9,0,0,0,.242,2.227A8.706,8.706,0,0,0,42.386,13.487ZM41.2,6.546a.966.966,0,0,1-.965-.966A7.337,7.337,0,0,1,41.2,3.535a7.343,7.343,0,0,1,.965,2.045A.965.965,0,0,1,41.2,6.546Z" transform="translate(-18.465)" fill="#fffcfc"/>
      <path id="Path_34058" data-name="Path 34058" d="M23.086,6.411c-.04.088-.076.173-.107.25-.17.412-.227.551-.8.655L22.4,8.522a1.985,1.985,0,0,0,1.708-1.394c0-.011.008-.017.011-.027a4.137,4.137,0,1,0,7.76-2.379L24.6,6.649l-.083-.894,2.4-1.128-2.444.647h0l-.146.039s0,.009,0,.013a1.111,1.111,0,0,1-.549.056,1.835,1.835,0,0,1-.951-1.042l-1.168.367A3.116,3.116,0,0,0,23.086,6.411Z" transform="translate(-20.333 -2.54)" fill="#fffcfc"/>
    </g>
  </g>
</svg>
