<svg xmlns="http://www.w3.org/2000/svg" width="42.162" height="40.204" viewBox="0 0 42.162 40.204">
  <g id="travel-svgrepo-com" transform="translate(0 -10.68)">
    <path id="Path_34049" data-name="Path 34049" d="M348.385,380.042h-3.9l1.105,4.862a1.9,1.9,0,0,0,3.713-.844Z" transform="translate(-312.901 -335.502)" fill="#a0bac6"/>
    <path id="Path_34050" data-name="Path 34050" d="M30.823,112.97c0-1.038,0-.984.006-1.1l-2.588-1.154a3.032,3.032,0,0,1-1.818-2.673l.412-6.473,1.108,6.57a1.587,1.587,0,0,0,.918,1.185l5.789,2.581a1.586,1.586,0,0,0,1.292-2.9l-5.012-2.235-1-5.949,2.146,4.776.4-4.634a2.365,2.365,0,0,0-2.154-2.559l-4.2-.361a2.365,2.365,0,0,0-2.557,2.131l-3.836,3.306a1.583,1.583,0,0,0-.317.374l-3.65,5.972a1.582,1.582,0,0,0-.033,1.592l-.826,1.257-4.161-2.734a1.51,1.51,0,0,0-2.092.435L.246,123.22a1.509,1.509,0,0,0,.434,2.087l2.744,1.8a2.656,2.656,0,1,0,4.831-.989c6.226-9.522,4.708-7.206,9.11-13.905a1.579,1.579,0,0,0,1.093-.736l3.52-5.761,1.191-1.027s-.541,7.657-.537,7.681l1.136,7.239-3.034,8.044A1.9,1.9,0,1,0,24.3,129l3.211-8.514a1.906,1.906,0,0,0,.1-.967l-1.081-6.884,1,.086.567,1.254a2.458,2.458,0,0,1,1.983-1.006ZM6.209,128.405a.845.845,0,1,1,.656-1A.845.845,0,0,1,6.209,128.405Z" transform="translate(0 -79.349)" fill="#a0bac6"/>
    <circle id="Ellipse_1" data-name="Ellipse 1" cx="3.502" cy="3.502" r="3.502" transform="translate(25.727 10.68)" fill="#a0bac6"/>
    <path id="Path_34051" data-name="Path 34051" d="M328.183,244.355h-2.1v-2.3a.905.905,0,0,0-.634-.863h0a3.142,3.142,0,0,1-.189.563,3.1,3.1,0,0,1-.987,1.229v1.375h-3.159v-1.048l-1.81-.807h0v1.855h-2.1a1.1,1.1,0,0,0-1.1,1.1v6a1.1,1.1,0,0,0,1.1,1.1h10.978a1.1,1.1,0,0,0,1.1-1.1v-6A1.105,1.105,0,0,0,328.183,244.355Z" transform="translate(-287.124 -209.377)" fill="#a0bac6"/>
  </g>
</svg>
