<?xml version="1.0"?>
<svg xmlns="http://www.w3.org/2000/svg" xmlns:xlink="http://www.w3.org/1999/xlink" xmlns:svgjs="http://svgjs.com/svgjs" version="1.1" width="512" height="512" x="0" y="0" viewBox="0 0 128 128" style="enable-background:new 0 0 512 512" xml:space="preserve" class=""><g><g xmlns="http://www.w3.org/2000/svg"><path d="m99.9 54.9c0 28.331-35.9 54.1-35.9 54.1s-35.9-25.769-35.9-54.1a35.9 35.9 0 0 1 71.794 0z" fill="#06a5c9" data-original="#009d8f" style="" class=""/><path d="m76.71 43.734h-4.833v-3.014a4.373 4.373 0 0 0 -4.369-4.368h-7.016a4.373 4.373 0 0 0 -4.369 4.368v3.014h-4.833a5.572 5.572 0 0 0 -5.566 5.566v16.933a5.572 5.572 0 0 0 5.566 5.567h25.42a5.572 5.572 0 0 0 5.566-5.566v-16.934a5.572 5.572 0 0 0 -5.566-5.566zm-17.087-3.014a.869.869 0 0 1 .869-.868h7.016a.869.869 0 0 1 .869.868v3.014h-8.754zm19.153 25.513a2.069 2.069 0 0 1 -2.066 2.067h-25.42a2.069 2.069 0 0 1 -2.066-2.066v-16.934a2.069 2.069 0 0 1 2.066-2.066h25.42a2.069 2.069 0 0 1 2.066 2.066z" fill="#ffffff" data-original="#fff7ed" style="" class=""/></g></g></svg>
